<svg version="1.0" xmlns="http://www.w3.org/2000/svg"
 width="60px" height="60px" viewBox="0 0 391.000000 266.000000"
 preserveAspectRatio="xMidYMid meet">

<g transform="translate(0.000000,266.000000) scale(0.100000,-0.100000)"
fill="#00A3FF" stroke="none">
<path d="M2601 2554 c-17 -22 -21 -41 -21 -103 0 -77 12 -178 29 -241 41 -150
88 -260 126 -292 50 -44 85 0 84 107 0 73 -29 258 -42 271 -4 4 -7 14 -7 23 0
20 -58 167 -78 199 -8 12 -27 31 -43 42 l-27 20 -21 -26z"/>
<path d="M1280 2452 c-47 -1 -89 -7 -94 -12 -6 -6 -19 -10 -30 -10 -34 0 -186
-57 -285 -107 -93 -47 -122 -73 -82 -73 11 0 23 -5 27 -11 9 -15 141 9 169 30
5 4 19 11 30 14 11 3 44 14 72 25 75 28 187 45 251 38 108 -13 218 -89 300
-208 36 -53 152 -290 152 -312 0 -9 4 -16 9 -16 5 0 12 -18 16 -41 9 -50 -11
-74 -94 -116 -31 -16 -102 -53 -159 -82 -56 -29 -109 -50 -117 -47 -8 3 -15
16 -15 28 0 27 -39 138 -77 217 -35 75 -91 155 -152 219 -54 55 -179 142 -205
142 -9 0 -16 4 -16 8 0 32 -352 54 -382 25 -6 -7 -20 -13 -30 -13 -10 0 -18
-4 -18 -9 0 -5 -11 -12 -25 -15 -40 -10 -138 -99 -173 -159 -109 -182 -68
-387 118 -590 56 -62 57 -66 11 -187 -25 -64 -26 -96 -7 -168 33 -121 125
-229 249 -291 45 -23 90 -41 99 -41 9 0 19 -4 22 -9 3 -5 18 -11 33 -14 16 -3
46 -10 68 -16 22 -7 72 -18 110 -27 92 -20 136 -30 220 -49 39 -9 89 -18 113
-22 23 -3 45 -10 48 -14 3 -5 25 -9 49 -9 24 0 46 -4 49 -9 3 -4 25 -11 48
-14 40 -6 135 -26 218 -47 19 -4 69 -15 110 -24 41 -8 118 -25 170 -36 267
-60 306 -66 325 -50 21 17 19 37 -5 50 -51 27 -324 110 -450 136 -14 3 -32 8
-40 10 -8 3 -17 6 -20 6 -3 1 -21 5 -40 10 -31 8 -90 21 -215 48 -96 21 -173
39 -210 50 -22 6 -56 15 -75 20 -227 54 -499 176 -600 268 -78 70 -101 115
-101 195 -1 56 2 64 29 88 22 19 44 27 90 32 34 4 70 11 79 15 10 5 44 21 75
36 123 60 188 158 188 282 0 141 -70 234 -187 250 -54 7 -153 -11 -153 -27 0
-5 -5 -9 -11 -9 -12 0 -47 -41 -67 -80 -16 -29 -10 -107 9 -139 7 -11 30 -27
50 -36 31 -14 43 -15 73 -5 36 11 84 62 78 82 -1 6 0 19 4 31 6 20 7 20 20 -4
17 -30 18 -100 2 -136 -15 -32 -51 -70 -91 -97 -46 -28 -174 -26 -224 5 -83
51 -122 100 -148 185 -19 63 -19 117 1 184 30 100 83 164 173 206 47 23 70 27
146 28 135 1 196 -25 300 -129 73 -72 83 -87 103 -150 36 -114 25 -212 -33
-311 -29 -49 -108 -122 -142 -130 -13 -4 -23 -8 -23 -11 0 -11 30 -33 44 -33
9 0 16 -4 16 -10 0 -5 6 -10 14 -10 8 0 54 -18 101 -40 47 -22 90 -40 96 -40
5 0 9 -4 9 -10 0 -5 6 -10 13 -10 13 0 80 -30 174 -78 40 -21 53 -32 53 -49 0
-21 -5 -23 -54 -23 -36 0 -60 -5 -70 -16 -35 -35 -9 -62 83 -90 31 -9 65 -20
76 -24 11 -5 47 -16 80 -25 33 -9 69 -21 80 -25 11 -5 36 -13 55 -19 110 -31
307 -94 322 -102 10 -5 25 -9 33 -9 8 0 23 -4 33 -9 9 -5 58 -21 107 -36 50
-15 108 -33 130 -40 180 -56 298 -41 483 61 185 102 335 202 486 323 49 39 92
71 97 71 16 0 9 -52 -11 -85 -20 -32 -91 -93 -210 -181 -61 -45 -389 -264
-396 -264 -2 0 -33 -18 -69 -40 -36 -22 -68 -40 -71 -40 -3 0 -30 -16 -60 -35
-46 -30 -54 -38 -44 -50 7 -8 26 -15 43 -15 53 0 357 144 572 270 162 95 440
289 472 329 45 56 22 118 -76 215 -129 127 -228 196 -431 299 -74 38 -157 78
-184 89 -27 10 -68 27 -90 37 -134 61 -157 68 -279 85 -151 21 -333 -9 -487
-82 -65 -30 -97 -48 -196 -109 -10 -7 -37 -22 -59 -34 -22 -11 -42 -24 -45
-28 -8 -12 -181 -98 -240 -120 -88 -33 -206 -52 -235 -39 -14 6 -25 15 -25 19
0 10 95 75 175 119 74 41 272 140 280 140 21 0 138 65 164 90 95 96 50 317
-113 544 -77 108 -218 224 -293 242 -15 4 -32 10 -38 14 -5 4 -34 10 -63 14
-29 4 -58 8 -65 9 -6 2 -50 1 -97 -1z m1580 -943 c62 -13 79 -18 135 -46 156
-76 241 -142 339 -260 18 -21 18 -23 -4 -53 -12 -17 -45 -49 -74 -71 -28 -21
-55 -43 -61 -47 -67 -52 -307 -175 -410 -210 -121 -42 -151 -46 -320 -47 -155
0 -174 2 -215 22 -25 12 -70 27 -100 34 -84 18 -210 59 -260 85 -25 13 -48 24
-52 24 -12 0 -88 53 -88 62 0 4 -7 8 -15 8 -9 0 -29 21 -45 47 -37 59 -34 95
14 138 52 47 258 160 411 226 49 21 141 49 162 49 12 0 25 5 28 10 3 6 18 10
32 10 14 0 39 7 56 15 18 8 57 16 87 17 107 6 326 -2 380 -13z"/>
<path d="M2405 1369 c-72 -20 -210 -83 -233 -106 -8 -8 -26 -20 -40 -27 -35
-18 -80 -69 -97 -110 -21 -50 -3 -75 90 -120 44 -22 115 -57 158 -78 43 -21
86 -38 97 -38 11 0 43 -9 72 -20 58 -22 93 -25 103 -10 3 5 32 17 63 26 31 9
66 23 77 30 11 8 25 14 31 14 17 0 170 86 223 126 123 90 137 134 54 167 -21
8 -47 24 -57 36 -11 12 -26 21 -34 21 -8 0 -29 10 -46 23 -17 13 -58 37 -90
52 -55 27 -71 29 -180 32 -96 2 -136 -2 -191 -18z m225 -83 c0 -22 -21 -33
-77 -41 -45 -6 -53 -4 -53 9 0 9 8 16 19 16 10 0 34 7 52 15 43 18 59 19 59 1z
m139 -79 c-77 -65 -85 -68 -96 -41 -9 24 45 63 87 63 l35 0 -26 -22z m-459
-62 c-23 -25 -64 -33 -75 -16 -8 15 36 41 69 41 l29 0 -23 -25z m610 7 c0 -25
-65 -57 -94 -46 -32 12 -20 23 54 44 36 11 40 11 40 2z m-460 -72 c-49 -38
-90 -38 -55 0 11 12 31 20 49 20 l31 0 -25 -20z m170 -55 c0 -3 -15 -14 -32
-25 -35 -21 -78 -27 -78 -10 0 6 7 10 15 10 8 0 15 4 15 9 0 9 24 17 63 20 9
0 17 -1 17 -4z"/>
<path d="M3297 2359 c-115 -61 -331 -336 -355 -454 -11 -57 -5 -75 25 -75 111
0 423 379 423 513 0 41 -35 47 -93 16z"/>
<path d="M2080 2128 c0 -22 38 -79 74 -111 12 -10 35 -31 52 -47 36 -32 171
-130 180 -130 3 0 31 -15 63 -34 67 -39 123 -53 139 -33 45 54 -266 315 -434
365 -59 17 -74 15 -74 -10z"/>
<path d="M3365 1944 c-85 -23 -212 -92 -270 -147 -69 -66 -76 -90 -35 -107 87
-36 412 126 435 217 13 52 -29 64 -130 37z"/>
<path d="M3297 1615 c-31 -13 -64 -30 -72 -39 -20 -20 -19 -55 3 -62 9 -3 25
-10 34 -15 23 -12 73 -12 112 0 17 5 50 14 72 20 49 13 94 46 94 70 0 56 -136
71 -243 26z"/>
</g>
</svg>
