<?xml version="1.0" standalone="no"?>
<!DOCTYPE svg PUBLIC "-//W3C//DTD SVG 20010904//EN"
 "http://www.w3.org/TR/2001/REC-SVG-20010904/DTD/svg10.dtd">
<svg version="1.0" xmlns="http://www.w3.org/2000/svg" viewBox="0 0 940.000000 260.000000"
 preserveAspectRatio="xMidYMid meet">

<g transform="translate(0.000000,260.000000) scale(0.100000,-0.100000)"
fill="#00A3FF" stroke="none">
<path d="M190 1640 l0 -790 1860 0 1860 0 0 519 c0 406 -3 520 -13 524 -6 2
-9 8 -5 12 9 10 38 -19 38 -39 0 -9 5 -16 10 -16 6 0 10 -7 10 -15 0 -19 119
-259 131 -263 5 -2 9 -12 9 -23 0 -10 5 -19 10 -19 6 0 10 -9 10 -20 0 -11 5
-20 10 -20 6 0 10 -9 10 -20 0 -11 5 -20 10 -20 6 0 10 -9 10 -20 0 -11 5 -20
10 -20 6 0 10 -9 10 -20 0 -11 5 -20 10 -20 6 0 10 -9 10 -20 0 -11 5 -20 10
-20 6 0 10 -9 10 -20 0 -11 5 -20 10 -20 6 0 10 -9 10 -20 0 -11 5 -20 10 -20
6 0 10 -9 10 -20 0 -11 4 -20 9 -20 5 0 12 -8 16 -19 7 -25 35 -55 62 -69 28
-15 155 -15 188 0 l25 11 0 569 0 568 2260 0 2260 0 0 -630 0 -630 -2370 0
-2370 0 0 -80 0 -80 2450 0 2450 0 0 790 0 790 -2430 0 -2430 0 0 -500 c0
-327 -3 -500 -10 -500 -5 0 -10 9 -10 20 0 11 -4 20 -10 20 -5 0 -10 9 -10 20
0 11 -4 20 -10 20 -5 0 -10 9 -10 20 0 11 -4 20 -10 20 -5 0 -10 9 -10 20 0
11 -4 20 -10 20 -5 0 -10 9 -10 20 0 11 -4 20 -10 20 -5 0 -10 9 -10 20 0 11
-4 20 -10 20 -5 0 -10 9 -10 20 0 11 -4 20 -10 20 -5 0 -10 8 -10 18 0 10 -9
24 -20 32 -11 8 -20 22 -20 32 0 10 -4 18 -10 18 -5 0 -10 9 -10 20 0 11 -4
20 -10 20 -5 0 -10 9 -10 20 0 11 -4 20 -10 20 -5 0 -10 9 -10 20 0 11 -4 20
-10 20 -5 0 -10 9 -10 20 0 11 -4 20 -10 20 -5 0 -10 9 -10 20 0 11 -4 20 -10
20 -5 0 -10 7 -10 15 0 17 -56 77 -88 94 -27 15 -174 14 -207 -1 l-25 -11 0
-549 0 -548 -1690 0 -1690 0 0 630 0 630 1810 0 1810 0 0 80 0 80 -1890 0
-1890 0 0 -790z"/>
<path d="M513 2118 l-23 -11 0 -487 0 -487 25 -11 c33 -15 97 -15 130 0 l25
11 0 409 c0 265 3 408 10 408 6 0 10 -9 10 -20 0 -11 5 -20 10 -20 6 0 10 -13
10 -29 0 -16 3 -31 8 -33 4 -1 41 -104 82 -228 41 -124 78 -226 82 -228 5 -2
8 -17 8 -33 0 -16 5 -29 10 -29 6 0 10 -13 10 -30 0 -16 5 -30 10 -30 6 0 10
-13 10 -30 0 -16 5 -30 10 -30 6 0 10 -12 10 -26 0 -46 45 -74 119 -74 60 0
101 17 101 42 0 10 5 18 10 18 6 0 10 14 10 30 0 17 5 30 10 30 6 0 10 14 10
30 0 17 5 30 10 30 6 0 10 14 10 30 0 17 5 30 10 30 6 0 10 14 10 30 0 17 5
30 10 30 6 0 10 9 10 20 0 11 5 20 10 20 6 0 10 14 10 30 0 17 5 30 10 30 6 0
10 14 10 30 0 17 5 30 10 30 6 0 10 14 10 30 0 17 5 30 10 30 6 0 10 14 10 30
0 17 5 30 10 30 6 0 10 9 10 20 0 11 5 20 10 20 6 0 10 14 10 30 0 17 5 30 10
30 6 0 10 14 10 30 0 17 5 30 10 30 6 0 10 14 10 30 0 17 5 30 10 30 6 0 10 9
10 20 0 11 5 20 10 20 7 0 10 -143 10 -408 l0 -409 25 -11 c33 -15 97 -15 130
0 l25 11 0 487 0 487 -25 11 c-32 15 -235 16 -235 2 0 -5 -7 -10 -16 -10 -20
0 -44 -24 -44 -44 0 -9 -4 -16 -8 -16 -5 0 -15 -22 -22 -50 -7 -27 -17 -50
-22 -50 -4 0 -8 -13 -8 -30 0 -16 -4 -30 -8 -30 -5 0 -15 -22 -22 -50 -7 -27
-17 -50 -22 -50 -4 0 -8 -13 -8 -30 0 -16 -4 -30 -8 -30 -5 0 -15 -22 -22 -50
-7 -28 -17 -50 -22 -50 -4 0 -8 -13 -8 -30 0 -16 -4 -30 -8 -30 -5 0 -15 -22
-22 -50 -7 -27 -17 -50 -22 -50 -4 0 -8 -9 -8 -20 0 -13 -7 -20 -20 -20 -16 0
-20 7 -20 30 0 17 -4 30 -10 30 -5 0 -10 14 -10 30 0 17 -4 30 -10 30 -5 0
-10 9 -10 20 0 11 -4 20 -10 20 -5 0 -10 14 -10 30 0 17 -4 30 -10 30 -5 0
-10 14 -10 30 0 17 -4 30 -10 30 -5 0 -10 14 -10 30 0 17 -4 30 -10 30 -5 0
-10 14 -10 30 0 17 -4 30 -10 30 -5 0 -10 9 -10 20 0 11 -4 20 -10 20 -5 0
-10 14 -10 30 0 17 -4 30 -10 30 -5 0 -10 14 -10 30 0 17 -4 30 -10 30 -5 0
-10 14 -10 30 0 17 -4 30 -10 30 -5 0 -10 8 -10 18 0 11 -16 26 -45 40 -38 18
-62 22 -148 21 -56 0 -112 -5 -124 -11z"/>
<path d="M1913 2118 l-23 -11 0 -487 0 -487 25 -11 c33 -15 117 -15 150 0 l25
11 0 239 c0 152 4 238 10 238 6 0 10 -8 10 -18 0 -10 9 -24 20 -32 11 -8 20
-21 20 -30 0 -9 9 -22 20 -30 11 -8 20 -22 20 -32 0 -10 4 -18 9 -18 5 0 14
-13 21 -30 7 -16 16 -30 20 -30 4 0 13 -13 20 -30 7 -16 16 -30 20 -30 4 0 13
-13 20 -30 7 -16 16 -30 21 -30 5 0 9 -8 9 -18 0 -10 9 -24 20 -32 11 -8 20
-22 20 -32 0 -10 4 -18 9 -18 5 0 12 -8 15 -18 12 -38 118 -54 196 -30 37 12
54 28 30 28 -5 0 -10 9 -10 20 0 11 -4 20 -10 20 -5 0 -10 8 -10 18 0 10 -9
24 -20 32 -11 8 -20 22 -20 32 0 10 -4 18 -10 18 -5 0 -10 8 -10 18 0 10 -9
24 -20 32 -11 8 -20 21 -20 30 0 9 -9 22 -20 30 -11 8 -20 21 -20 30 0 9 -9
22 -20 30 -11 8 -20 21 -20 30 0 9 -9 22 -20 30 -11 8 -20 21 -20 30 0 9 -9
22 -20 30 -11 8 -20 21 -20 29 0 7 -10 22 -22 32 l-21 19 21 19 c12 10 22 24
22 30 0 7 18 30 40 51 22 21 40 44 40 50 0 7 14 25 30 40 17 15 30 33 30 40 0
7 14 25 30 40 17 15 30 33 30 40 0 7 14 25 30 40 17 15 30 35 30 44 0 9 5 16
10 16 6 0 10 8 10 18 0 26 -41 42 -110 42 -67 0 -107 -14 -116 -42 -3 -10 -16
-30 -30 -43 -13 -13 -24 -29 -24 -35 0 -6 -11 -22 -24 -35 -14 -13 -27 -34
-31 -45 -3 -11 -10 -20 -15 -20 -5 0 -12 -9 -15 -20 -4 -11 -17 -32 -31 -45
-13 -13 -24 -30 -24 -37 0 -8 -9 -20 -20 -28 -11 -8 -20 -20 -20 -28 0 -12
-43 -62 -55 -62 -3 0 -5 94 -5 208 l0 209 -25 11 c-32 15 -122 14 -152 0z"/>
<path d="M3019 2120 c-9 -5 -29 -49 -45 -97 -15 -49 -32 -89 -36 -91 -4 -2 -8
-17 -8 -33 0 -16 -4 -29 -10 -29 -5 0 -10 -13 -10 -30 0 -16 -4 -30 -10 -30
-5 0 -10 -13 -10 -30 0 -16 -4 -30 -10 -30 -5 0 -10 -13 -10 -29 0 -16 -3 -31
-8 -33 -4 -1 -27 -64 -52 -138 -25 -74 -48 -136 -52 -138 -5 -2 -8 -17 -8 -33
0 -16 -4 -29 -10 -29 -5 0 -10 -13 -10 -30 0 -16 -4 -30 -10 -30 -5 0 -10 -13
-10 -30 0 -16 -4 -30 -10 -30 -5 0 -10 -13 -10 -30 0 -16 -4 -30 -10 -30 -15
0 -12 -29 4 -46 18 -17 124 -19 161 -2 14 6 25 19 25 30 0 10 5 18 10 18 6 0
10 18 10 40 0 22 5 40 10 40 6 0 10 14 10 30 0 17 5 30 10 30 6 0 10 9 10 20
0 19 7 20 194 20 l194 0 32 -100 c43 -133 50 -140 138 -140 96 0 102 3 102 56
0 24 -4 44 -10 44 -5 0 -10 14 -10 30 0 17 -4 30 -10 30 -5 0 -10 14 -10 30 0
17 -4 30 -10 30 -5 0 -10 14 -10 30 0 17 -4 30 -10 30 -5 0 -10 9 -10 20 0 11
-4 20 -10 20 -5 0 -10 14 -10 30 0 17 -4 30 -10 30 -5 0 -10 14 -10 30 0 17
-4 30 -10 30 -5 0 -10 14 -10 30 0 17 -4 30 -10 30 -5 0 -10 14 -10 30 0 17
-4 30 -10 30 -5 0 -10 14 -10 30 0 17 -4 30 -10 30 -5 0 -10 14 -10 30 0 17
-4 30 -10 30 -5 0 -10 14 -10 30 0 17 -4 30 -10 30 -5 0 -10 9 -10 20 0 11 -4
20 -10 20 -5 0 -10 14 -10 30 0 17 -4 30 -10 30 -5 0 -10 14 -10 30 0 17 -4
30 -10 30 -5 0 -10 14 -10 30 0 17 -4 30 -10 30 -5 0 -10 8 -10 18 0 11 -11
24 -25 30 -31 14 -203 15 -226 2z m118 -217 c6 -16 36 -102 67 -193 30 -91 58
-173 61 -182 7 -17 -4 -18 -134 -18 l-141 0 0 30 c0 17 5 30 10 30 6 0 10 14
10 30 0 17 5 30 10 30 6 0 10 14 10 30 0 17 5 30 10 30 6 0 10 14 10 30 0 17
5 30 10 30 6 0 10 14 10 30 0 17 5 30 10 30 6 0 10 14 10 30 0 17 5 30 10 30
6 0 10 14 10 30 0 37 11 39 27 3z"/>
<path d="M4800 2112 c-13 -14 -15 -84 -15 -492 0 -433 2 -478 17 -493 14 -15
39 -17 170 -17 198 1 334 22 417 64 42 22 161 141 161 161 0 8 5 15 10 15 6 0
10 14 10 30 0 17 5 30 10 30 6 0 10 18 10 40 0 22 5 40 10 40 6 0 10 53 10
140 0 87 -4 140 -10 140 -5 0 -10 18 -10 40 0 22 -4 40 -10 40 -5 0 -10 9 -10
20 0 11 -4 20 -10 20 -5 0 -10 8 -10 18 0 10 -9 24 -20 32 -11 8 -20 21 -20
29 0 14 -37 51 -51 51 -4 0 -14 6 -21 14 -19 19 -94 56 -113 56 -8 0 -15 4
-15 8 0 15 -186 32 -340 32 -132 -1 -157 -3 -170 -18z m410 -154 c22 -7 40
-16 40 -20 0 -5 7 -8 15 -8 20 0 85 -65 85 -85 0 -8 5 -15 10 -15 6 0 10 -9
10 -20 0 -11 5 -20 10 -20 6 0 10 -12 10 -27 0 -15 5 -53 12 -85 9 -45 9 -72
0 -120 -18 -90 -35 -148 -44 -148 -4 0 -8 -7 -8 -15 0 -20 -65 -85 -85 -85 -8
0 -15 -3 -15 -8 0 -16 -84 -32 -170 -32 l-90 0 0 350 0 350 90 0 c50 0 108 -6
130 -12z"/>
<path d="M6039 2120 c-9 -5 -29 -49 -45 -97 -15 -49 -32 -89 -36 -91 -4 -2 -8
-17 -8 -33 0 -16 -4 -29 -10 -29 -5 0 -10 -13 -10 -30 0 -16 -4 -30 -10 -30
-5 0 -10 -13 -10 -30 0 -16 -4 -30 -10 -30 -5 0 -10 -13 -10 -29 0 -16 -3 -31
-8 -33 -4 -1 -27 -64 -52 -138 -25 -74 -48 -136 -52 -138 -5 -2 -8 -17 -8 -33
0 -16 -4 -29 -10 -29 -5 0 -10 -13 -10 -30 0 -16 -4 -30 -10 -30 -5 0 -10 -13
-10 -30 0 -16 -4 -30 -10 -30 -5 0 -10 -13 -10 -30 0 -16 -4 -30 -10 -30 -15
0 -12 -29 4 -46 18 -17 124 -19 161 -2 14 6 25 19 25 30 0 10 5 18 10 18 6 0
10 18 10 40 0 22 5 40 10 40 6 0 10 14 10 30 0 17 5 30 10 30 6 0 10 9 10 20
0 19 7 20 194 20 l194 0 32 -100 c43 -133 50 -140 138 -140 96 0 102 3 102 56
0 24 -4 44 -10 44 -5 0 -10 14 -10 30 0 17 -4 30 -10 30 -5 0 -10 14 -10 30 0
17 -4 30 -10 30 -5 0 -10 14 -10 30 0 17 -4 30 -10 30 -5 0 -10 9 -10 20 0 11
-4 20 -10 20 -5 0 -10 14 -10 30 0 17 -4 30 -10 30 -5 0 -10 14 -10 30 0 17
-4 30 -10 30 -5 0 -10 14 -10 30 0 17 -4 30 -10 30 -5 0 -10 14 -10 30 0 17
-4 30 -10 30 -5 0 -10 14 -10 30 0 17 -4 30 -10 30 -5 0 -10 14 -10 30 0 17
-4 30 -10 30 -5 0 -10 14 -10 30 0 17 -4 30 -10 30 -5 0 -10 9 -10 20 0 11 -4
20 -10 20 -5 0 -10 14 -10 30 0 17 -4 30 -10 30 -5 0 -10 14 -10 30 0 17 -4
30 -10 30 -5 0 -10 14 -10 30 0 17 -4 30 -10 30 -5 0 -10 8 -10 18 0 11 -11
24 -25 30 -31 14 -203 15 -226 2z m118 -217 c6 -16 36 -102 67 -193 30 -91 58
-173 61 -182 7 -17 -4 -18 -134 -18 l-141 0 0 30 c0 17 5 30 10 30 6 0 10 14
10 30 0 17 5 30 10 30 6 0 10 14 10 30 0 17 5 30 10 30 6 0 10 14 10 30 0 17
5 30 10 30 6 0 10 14 10 30 0 17 5 30 10 30 6 0 10 14 10 30 0 17 5 30 10 30
6 0 10 14 10 30 0 37 11 39 27 3z"/>
<path d="M6773 2118 l-23 -11 0 -487 0 -487 25 -11 c33 -15 97 -15 130 0 l25
11 0 409 c0 265 3 408 10 408 6 0 10 -9 10 -20 0 -11 5 -20 10 -20 6 0 10 -13
10 -29 0 -16 3 -31 8 -33 4 -1 41 -104 82 -228 41 -124 78 -226 82 -228 5 -2
8 -17 8 -33 0 -16 5 -29 10 -29 6 0 10 -13 10 -30 0 -16 5 -30 10 -30 6 0 10
-13 10 -30 0 -16 5 -30 10 -30 6 0 10 -12 10 -26 0 -46 45 -74 119 -74 60 0
101 17 101 42 0 10 5 18 10 18 6 0 10 14 10 30 0 17 5 30 10 30 6 0 10 14 10
30 0 17 5 30 10 30 6 0 10 14 10 30 0 17 5 30 10 30 6 0 10 14 10 30 0 17 5
30 10 30 6 0 10 9 10 20 0 11 5 20 10 20 6 0 10 14 10 30 0 17 5 30 10 30 6 0
10 14 10 30 0 17 5 30 10 30 6 0 10 14 10 30 0 17 5 30 10 30 6 0 10 14 10 30
0 17 5 30 10 30 6 0 10 9 10 20 0 11 5 20 10 20 6 0 10 14 10 30 0 17 5 30 10
30 6 0 10 14 10 30 0 17 5 30 10 30 6 0 10 14 10 30 0 17 5 30 10 30 6 0 10 9
10 20 0 11 5 20 10 20 7 0 10 -143 10 -408 l0 -409 25 -11 c33 -15 97 -15 130
0 l25 11 0 487 0 487 -25 11 c-32 15 -235 16 -235 2 0 -5 -7 -10 -16 -10 -20
0 -44 -24 -44 -44 0 -9 -4 -16 -8 -16 -5 0 -15 -22 -22 -50 -7 -27 -17 -50
-22 -50 -4 0 -8 -13 -8 -30 0 -16 -4 -30 -8 -30 -5 0 -15 -22 -22 -50 -7 -27
-17 -50 -22 -50 -4 0 -8 -13 -8 -30 0 -16 -4 -30 -8 -30 -5 0 -15 -22 -22 -50
-7 -28 -17 -50 -22 -50 -4 0 -8 -13 -8 -30 0 -16 -4 -30 -8 -30 -5 0 -15 -22
-22 -50 -7 -27 -17 -50 -22 -50 -4 0 -8 -9 -8 -20 0 -13 -7 -20 -20 -20 -16 0
-20 7 -20 30 0 17 -4 30 -10 30 -5 0 -10 14 -10 30 0 17 -4 30 -10 30 -5 0
-10 9 -10 20 0 11 -4 20 -10 20 -5 0 -10 14 -10 30 0 17 -4 30 -10 30 -5 0
-10 14 -10 30 0 17 -4 30 -10 30 -5 0 -10 14 -10 30 0 17 -4 30 -10 30 -5 0
-10 14 -10 30 0 17 -4 30 -10 30 -5 0 -10 9 -10 20 0 11 -4 20 -10 20 -5 0
-10 14 -10 30 0 17 -4 30 -10 30 -5 0 -10 14 -10 30 0 17 -4 30 -10 30 -5 0
-10 14 -10 30 0 17 -4 30 -10 30 -5 0 -10 8 -10 18 0 11 -16 26 -45 40 -38 18
-62 22 -148 21 -56 0 -112 -5 -124 -11z"/>
<path d="M8399 2120 c-9 -5 -29 -49 -45 -97 -15 -49 -32 -89 -36 -91 -4 -2 -8
-17 -8 -33 0 -16 -4 -29 -10 -29 -5 0 -10 -13 -10 -30 0 -16 -4 -30 -10 -30
-5 0 -10 -13 -10 -30 0 -16 -4 -30 -10 -30 -5 0 -10 -13 -10 -29 0 -16 -3 -31
-8 -33 -4 -1 -27 -64 -52 -138 -25 -74 -48 -136 -52 -138 -5 -2 -8 -17 -8 -33
0 -16 -4 -29 -10 -29 -5 0 -10 -13 -10 -30 0 -16 -4 -30 -10 -30 -5 0 -10 -13
-10 -30 0 -16 -4 -30 -10 -30 -5 0 -10 -13 -10 -30 0 -16 -4 -30 -10 -30 -15
0 -12 -29 4 -46 18 -17 124 -19 161 -2 14 6 25 19 25 30 0 10 5 18 10 18 6 0
10 18 10 40 0 22 5 40 10 40 6 0 10 14 10 30 0 17 5 30 10 30 6 0 10 9 10 20
0 19 7 20 194 20 l194 0 32 -100 c43 -133 50 -140 138 -140 96 0 102 3 102 56
0 24 -4 44 -10 44 -5 0 -10 14 -10 30 0 17 -4 30 -10 30 -5 0 -10 14 -10 30 0
17 -4 30 -10 30 -5 0 -10 14 -10 30 0 17 -4 30 -10 30 -5 0 -10 9 -10 20 0 11
-4 20 -10 20 -5 0 -10 14 -10 30 0 17 -4 30 -10 30 -5 0 -10 14 -10 30 0 17
-4 30 -10 30 -5 0 -10 14 -10 30 0 17 -4 30 -10 30 -5 0 -10 14 -10 30 0 17
-4 30 -10 30 -5 0 -10 14 -10 30 0 17 -4 30 -10 30 -5 0 -10 14 -10 30 0 17
-4 30 -10 30 -5 0 -10 14 -10 30 0 17 -4 30 -10 30 -5 0 -10 9 -10 20 0 11 -4
20 -10 20 -5 0 -10 14 -10 30 0 17 -4 30 -10 30 -5 0 -10 14 -10 30 0 17 -4
30 -10 30 -5 0 -10 14 -10 30 0 17 -4 30 -10 30 -5 0 -10 8 -10 18 0 11 -11
24 -25 30 -31 14 -203 15 -226 2z m118 -217 c6 -16 36 -102 67 -193 30 -91 58
-173 61 -182 7 -17 -4 -18 -134 -18 l-141 0 0 30 c0 17 5 30 10 30 6 0 10 14
10 30 0 17 5 30 10 30 6 0 10 14 10 30 0 17 5 30 10 30 6 0 10 14 10 30 0 17
5 30 10 30 6 0 10 14 10 30 0 17 5 30 10 30 6 0 10 14 10 30 0 17 5 30 10 30
6 0 10 14 10 30 0 37 11 39 27 3z"/>
</g>
</svg>
